Bold.sfdir
StartChar: exclam
Encoding: 33 33 1
Width: 367
Flags: HMW
LayerCount: 2
Fore
SplineSet
117 695 m 1xe0
 248 695 l 1xe0
 205 217 l 1
 160 217 l 1xd0
 118 652 l 1
 117 695 l 1xe0
EndSplineSet
Refer: 14 46 N 1 0 0 1 31 0 2
EndChar
StartChar: dollar
Encoding: 36 36 4
Width: 550
Flags: HMW
LayerCount: 2
Fore
SplineSet
48 58 m 1
 67 168 l 1
 115 131 150 75 238 61 c 5
 238 294 l 1
 235 295 233 295 230 296 c 0
 102 328 60 424 60 502 c 0
 60 664 165 696 238 704 c 1
 238 750 l 1
 310 750 l 1
 310 704 l 1
 373 700 419 681 469 650 c 1
 451 545 l 1
 419 567 380 627 310 633 c 1
 310 429 l 1
 441 399 488 294 488 206 c 0
 488 92 440 3 310 -9 c 1
 310 -56 l 1
 238 -56 l 1
 238 -10 l 1
 235 -7 153 -11 48 58 c 1
178 525 m 0
 178 467 230 450 238 446 c 1
 238 632 l 1
 237 632 l 1
 226 629 178 587 178 525 c 0
310 64 m 5
 324 68 371 111 371 183 c 0
 371 239 334 266 311 276 c 1
 310 246 l 1
 310 64 l 5
EndSplineSet
EndChar
StartChar: percent
Encoding: 37 37 5
Width: 1029
Flags: HMW
LayerCount: 2
Fore
SplineSet
60 549 m 0
 60 609 72 667 111 705 c 0
 139 733 181 750 243 750 c 0
 303 750 344 732 371 705 c 0
 411 665 422 603 422 547 c 0
 422 488 410 435 378 399 c 0
 350 367 305 347 241 347 c 0
 186 347 140 362 108 395 c 0
 77 427 60 477 60 549 c 0
180 541 m 2
 181 509 180 440 194 415 c 0
 203 400 217 390 241 390 c 0
 263 390 278 401 288 417 c 0
 306 447 307 523 307 549 c 0
 307 594 302 671 278 693 c 0
 269 702 257 707 241 707 c 0
 221 707 207 700 198 689 c 0
 180 667 181 598 180 565 c 2
 180 541 l 2
201 -14 m 0
 201 1 209 12 216 21 c 2
 746 723 l 2
 749 727 762 750 787 750 c 0
 812 750 828 729 828 708 c 0
 828 696 823 687 815 677 c 2
 281 -32 l 2
 278 -36 265 -55 242 -55 c 0
 219 -55 201 -37 201 -14 c 0
605 147 m 0
 605 208 618 253 641 285 c 0
 673 329 724 347 788 347 c 0
 847 347 887 330 914 305 c 0
 953 268 964 213 966 162 c 2
 966 128 l 2
 964 78 952 25 916 -11 c 0
 889 -38 848 -56 786 -56 c 0
 727 -56 679 -40 647 -1 c 0
 620 32 605 80 605 147 c 0
725 138 m 2
 726 103 725 31 742 7 c 0
 751 -5 765 -13 786 -13 c 0
 807 -13 821 -3 831 11 c 0
 851 40 852 119 852 146 c 0
 852 187 847 259 829 283 c 0
 819 296 806 304 786 304 c 0
 764 304 750 296 741 283 c 0
 725 261 726 194 725 162 c 2
 725 138 l 2
EndSplineSet
EndChar
StartChar: ampersand
Encoding: 38 38 6
Width: 831
Flags: HMW
LayerCount: 2
Fore
SplineSet
45 148 m 0xe8
 45 243 124 284 193 332 c 1
 176 377 161 426 161 489 c 0xd8
 161 611 232 717 338 717 c 0
 431 717 511 643 511 553 c 0
 511 515 490 479 458 445 c 0
 422 406 373 370 325 336 c 1
 377 248 473 157 482 145 c 1
 483 145 l 1
 529 189 578.299804688 248.8515625 594 281 c 0
 615 324 643 376 662 444 c 1
 732 417 l 1
 716 357 691.651650008 295.213425012 655 235 c 0
 627 189 584 136 540 94 c 1
 556 86 579 73 596 64 c 0
 608.654296875 57.30078125 625 48 643 48 c 0
 668 48 690 59 710 70 c 0
 728.731356694 80.3022461819 750 95 768 101 c 1
 768 -5 l 1
 750 -10 732 -14 714 -17 c 0
 691 -21 667 -23 644 -23 c 0
 600 -23 562 -14 532 -4 c 0
 492 10 477 18 452 33 c 9
 452 33 l 17
 382 -9 298 -22 247 -22 c 0
 129 -22 45 55 45 148 c 0xe8
182 174 m 0xe8
 182 134 195 48 249 48 c 0
 292 48 353 73 380 82 c 1
 334 127 270 194 226 267 c 1
 205 252 182 231 182 174 c 0xe8
265 546 m 0
 265 491 281 436 293 403 c 1
 316 420 350 444 373 479 c 0
 387 500 396 524 396 552 c 0
 396 584 384 674 336 674 c 0xd8
 308 674 265 619 265 546 c 0
EndSplineSet
EndChar
StartChar: plus
Encoding: 43 43 11
Width: 855
Flags: MW
LayerCount: 2
Fore
SplineSet
61 250 m 0
 61 284 95 286 107 286 c 2
 390 286 l 1
 390 565 l 2
 390 588 393.984378813 616 426 616 c 4
 461 616 463 576 463 565 c 6
 463 286 l 1
 741 286 l 2
 766.816250223 286 792 278.051395623 792 250 c 0
 792 216 758 214 745 214 c 2
 463 214 l 1
 463 -65 l 2
 463 -90.8162502233 455.051395623 -116 427 -116 c 0
 391 -116 390 -71 390 -65 c 2
 390 214 l 1
 111 214 l 2
 85.4772666336 214 61 222.35967752 61 250 c 0
EndSplineSet
EndChar
StartChar: zero
Encoding: 48 48 16
Width: 550
Flags: HMW
LayerCount: 2
Fore
SplineSet
42 344 m 0
 42 356 42 368 42 380 c 0
 44 509 60 664 195 706 c 0
 218 713 244 717 274 717 c 0
 331 717 393 700 435 654 c 0
 506 576 506 431 506 362 c 2
 506 352 l 2
 506 213 504 32 351 -12 c 0
 328 -18 303 -22 273 -22 c 0
 52 -22 42 180 42 344 c 0
179 352 m 0
 179 155 186 61 238 30 c 0
 248 25 260 20 274 20 c 0
 280 20 306 21 329 46 c 0
 370 90 367 200 369 357 c 0
 369 368 370 380 370 393 c 0
 370 468 366 589 348 625 c 0
 334 653 306 674 274 674 c 0
 180 674 179 516 179 396 c 0
 179 381 179 366 179 352 c 0
EndSplineSet
EndChar
StartChar: one
Encoding: 49 49 17
Width: 550
Flags: HMW
LayerCount: 2
Fore
SplineSet
217 0 m 5
 217 611 l 1
 171 599 124 595 76 595 c 1
 76 648 l 1
 192 648 264 670 320 717 c 1
 355 717 l 1
 355 0 l 1
 217 0 l 5
EndSplineSet
EndChar
StartChar: three
Encoding: 51 51 19
Width: 550
Flags: HMW
LayerCount: 2
Fore
SplineSet
45 58 m 1
 62 121 l 1
 94 94 128 72 168 58 c 0
 195 49 224 43 257 43 c 0
 292 43 315 53 330 69 c 0
 353 94 355 162 355 197 c 2
 355 216 l 2xe8
 355 261 346 289 333 307 c 0
 306 345 262 347 243 349 c 2
 183 349 l 1
 183 401 l 1
 219 404 232 404 244 407 c 0
 288 416 332 470 332 547 c 0
 332 572 329 626 314 641 c 0
 303 652 287 658 261 658 c 0xf0
 230 658 205 651 184 640 c 0
 162 629 146 614 134 601 c 0
 123 589 116 578 113 573 c 1
 60 619 l 1
 87 652 121 680 164 698 c 0
 193 710 226 717 264 717 c 0
 342 717 391 698 422 670 c 0
 463 634 472 583 472 544 c 0xf0
 472 501 458 468 439 443 c 0
 414 409 380 389 361 378 c 1
 381 373 431 361 466 319 c 0
 488 293 503 256 503 203 c 0
 503 133 484 62 422 19 c 0
 386 -6 334 -22 263 -22 c 0
 223 -22 187 -16 154 -5 c 0
 114 9 78 30 45 58 c 1
EndSplineSet
EndChar
StartChar: four
Encoding: 52 52 20
Width: 550
Flags: HMW
LayerCount: 2
Fore
SplineSet
30 152 m 1
 30 247 l 1
 30 247 l 1
 273 695 l 1
 428 695 l 1
 428 247 l 1
 518 247 l 1
 518 152 l 1
 428 152 l 1
 428 -0 l 1
 304 -0 l 1
 304 152 l 1
 30 152 l 1
95 247 m 1
 309 247 l 1
 309 622 l 1
 291 558 214 466 95 247 c 1
EndSplineSet
EndChar
StartChar: five
Encoding: 53 53 21
Width: 550
Flags: HMW
LayerCount: 2
Fore
SplineSet
36 82 m 1
 89 139 l 1
 95 129 100 120 107 110 c 0
 123 88 143 72 164 61 c 0
 189 48 217 42 242 42 c 0
 286 42 311 55 326 78 c 0
 344 105 346 175 346 220 c 2
 346 248 l 2
 346 288 344 359 329 384 c 0
 320 399 285 409 262 409 c 0
 190 409 135 326 134 326 c 2
 82 326 l 1
 82 695 l 1
 457 695 l 1
 457 574 l 1
 163 574 l 1
 163 435 l 1
 183 444 232 452 267 452 c 0
 325 452 393 438 429 406 c 0
 470 369 494 309 494 219 c 0
 494 134 470 78 432 41 c 0
 384 -6 314 -22 246 -22 c 0
 205 -22 170 -14 142 -2 c 0
 83 22 50 62 36 82 c 1
EndSplineSet
EndChar
StartChar: six
Encoding: 54 54 22
Width: 550
Flags: HMW
LayerCount: 2
Fore
SplineSet
45 342 m 0
 45 501 77 566 105 608 c 0
 154 682 237 717 335 717 c 0
 373 717 396 712 432 696 c 1
 432 634 l 1
 401 649 377 658 338 658 c 0
 266 658 230 620 217 598 c 0
 200 569 186 499 186 401 c 1
 207 451 247 493 321 493 c 0
 405 493 439 455 461 424 c 0
 499 368 503 314 503 250 c 2
 503 244 l 2
 503 189 502 127 467 71 c 0
 408 -20 324 -22 277 -22 c 0
 201 -22 150 5 116 46 c 0
 48 127 45 262 45 342 c 0
187 253 m 0
 187 245 187 237 187 229 c 0
 188 148 200 42 280 42 c 0
 344 42 359 87 362 140 c 0
 363 163 362 217 363 240 c 2
 363 274 l 2
 362 313 363 371 352 398 c 0
 342 423 322 440 282 440 c 0
 217 440 193 356 188 288 c 0
 187 276 187 265 187 253 c 0
EndSplineSet
EndChar
StartChar: seven
Encoding: 55 55 23
Width: 550
Flags: HMW
LayerCount: 2
Fore
SplineSet
45 577 m 5
 45 695 l 1
 503 695 l 1
 503 584 l 5
 264 -11 l 1
 142 -11 l 1
 444 578 l 5
 45 577 l 5
EndSplineSet
EndChar
StartChar: eight
Encoding: 56 56 24
Width: 550
Flags: HMW
LayerCount: 2
Fore
SplineSet
45 201 m 0xf2
 45 287 82 351 169 375 c 1
 147 384 60 406 60 523 c 0
 60 620 103 717 274 717 c 2
 275 717 l 2
 446 717 468 620 468 522 c 0xec
 468 394 380 379 379 375 c 1
 466 351 503 287 503 201 c 0
 503 89 457 -22 274 -22 c 0
 91 -22 45 90 45 201 c 0xf2
135 190 m 2
 136 152 157 96 178 74 c 0
 191 61 241 43 273 43 c 0
 301 43 321 60 334 70 c 0
 367 96 363 166 364 198 c 2
 364 219 l 2xf2
 363 260 359 285 340 306 c 0
 327 321 306 339 274 339 c 0
 242 339 192 320 179 306 c 0
 152 277 136 239 135 213 c 2
 135 190 l 2
188 511 m 2xec
 188 475 193 459 208 442 c 0
 221 428 242 411 273 411 c 0
 306 411 336 419 349 432 c 0
 368 452 390 482 390 512 c 2
 390 530 l 2
 390 562 376 606 365 622 c 0
 353 640 311 658 275 658 c 0
 243 658 223 641 210 630 c 0
 187 610 189 557 188 529 c 2
 188 511 l 2xec
EndSplineSet
EndChar
StartChar: nine
Encoding: 57 57 25
Width: 550
Flags: HMW
LayerCount: 2
Fore
SplineSet
45 443 m 0
 45 513 45 573 88 632 c 0
 124 682 172 717 276 717 c 0
 342 717 390 695 423 662 c 0
 500 585 503 444 503 359 c 0
 503 255 494 124 412 45 c 0
 362 -3 292 -22 226 -22 c 0
 164 -22 124 -5 79 26 c 1
 127 80 l 1
 157 57 181 43 226 43 c 0
 274 43 315 66 335 101 c 0
 350 129 362 203 362 286 c 2
 362 295 l 1
 346 254 308 202 227 202 c 0
 143 202 107 241 86 273 c 0
 49 328 45 381 45 443 c 0
185 450 m 2
 187 335 191 298 207 278 c 0
 222 261 244 255 266 255 c 0
 290 255 320 264 340 304 c 0
 353 330 362 389 362 448 c 0
 362 525 361 658 274 658 c 0
 251 658 233 653 221 644 c 0
 181 616 188 522 185 482 c 2
 185 450 l 2
EndSplineSet
EndChar
StartChar: equal
Encoding: 61 61 29
Width: 855
Flags: MW
LayerCount: 2
Fore
SplineSet
61 135 m 0
 61 153 75 168 92 171 c 0
 100 172 109 172 118 172 c 2
 747 172 l 2
 788 172 792 144 792 135 c 0
 792 121 784 99 744 99 c 2
 109 99 l 2
 68 99 61 121 61 135 c 0
61 365 m 0
 61 378 68 401 107 401 c 2
 747 401 l 2
 788 401 792 373 792 364 c 0
 792 350 784 328 744 328 c 2
 109 328 l 2
 68 328 61 350 61 365 c 0
EndSplineSet
EndChar
StartChar: question
Encoding: 63 63 31
Width: 519
Flags: HMW
LayerCount: 2
Fore
SplineSet
60 657 m 1
 110 685 166 704 239 706 c 2
 251 706 l 2xd8
 406 706 457 644 457 557 c 0
 457 469 402 441 386 428 c 0
 296 355 281 284 281 250 c 2
 281 217 l 1
 206 217 l 1
 206 249 l 2
 206 410 292 479 311 511 c 0
 320 528 321 552 321 562 c 0
 321 621 302 663 247 663 c 0
 177 663 129 602 95 562 c 1
 60 657 l 1
EndSplineSet
Refer: 14 46 N 1 0 0 1 92 0 2
EndChar
StartChar: A
Encoding: 65 65 33
Width: 733
Flags: HMW
LayerCount: 2
Fore
SplineSet
30 0 m 1
 272 695 l 1
 459 695 l 1
 701 0 l 1
 548 0 l 1
 483 180 l 1
 197 180 l 1
 136 0 l 1
 30 0 l 1
216 237 m 1
 464 237 l 1
 355 521 l 1
 342 599 l 1
 329 542 288 457 216 237 c 1
EndSplineSet
EndChar
StartChar: B
Encoding: 66 66 34
Width: 733
Flags: HMW
LayerCount: 2
Fore
SplineSet
91 0 m 1
 91 695 l 1
 344 695 l 2
 416 695 491 695 555 660 c 0
 632 619 641 547 641 514 c 0xf8
 641 394 517 369 494 363 c 1
 545 356 671 329 671 193 c 0xf4
 671 115 633 55 562 25 c 0
 531 12 499 6 466 3 c 0
 434 0 402 0 371 0 c 2
 91 0 l 1
233 57 m 1
 362 57 l 2
 430 57 479 95 509 130 c 0
 525 148 532 173 532 197 c 0xf4
 532 244 510 287 478 307 c 0
 452 322 423 335 394 338 c 0
 378 339 361 340 345 340 c 2
 345 340 277 340 234 340 c 25
 234 340 233 319 233 305 c 17
 233 57 l 1
233 383 m 1
 331 383 l 2
 396 383 453 405 483 447 c 0
 495 462 504 485 504 511 c 0xf8
 504 550 479 638 355 638 c 2
 355 638 281 638 234 638 c 25
 234 638 233 618 233 606 c 17
 233 383 l 1
EndSplineSet
EndChar
StartChar: C
Encoding: 67 67 35
Width: 703
Flags: HMW
LayerCount: 2
Fore
SplineSet
60 346 m 0
 60 643 234 717 431 717 c 0
 512 717 566 705 634 682 c 1
 611 551 l 1
 574 584 529 646 429 646 c 0
 259 646 208 497 208 349 c 0
 208 203 252 48 431 48 c 0
 534 48 566 68 637 114 c 1
 646 33 l 1
 561 -13 521 -23 429 -23 c 0
 229 -23 60 59 60 346 c 0
EndSplineSet
EndChar
StartChar: D
Encoding: 68 68 36
Width: 794
Flags: HMW
LayerCount: 2
Fore
SplineSet
91 -0 m 1
 91 695 l 1
 381 695 l 2
 448 695 511 687 565 664 c 0
 665 621 732 528 732 340 c 0
 732 89 598 19 458 4 c 0
 433 1 407 0 382 -0 c 2
 91 -0 l 1
236 57 m 1
 339 57 l 2
 414 57 502 90 551 166 c 0
 581 212 586 267 587 320 c 0
 587 381 588 431 571 482 c 0
 554 533 524 594 490 612 c 0
 444 636 390 638 348 638 c 2
 236 638 l 1
 236 57 l 1
EndSplineSet
EndChar
StartChar: E
Encoding: 69 69 37
Width: 642
Flags: HMW
LayerCount: 2
Fore
SplineSet
91 0 m 1
 91 692 l 1x6c
 580 692 l 1
 580 617 l 1x34
 239 620 l 1
 239 392 l 1
 549 392 l 1
 549 327 l 1
 239 327 l 1
 239 77 l 1xac
 595 81 l 1
 595 0 l 1x64
 91 0 l 1
EndSplineSet
EndChar
StartChar: G
Encoding: 71 71 39
Width: 733
Flags: HMW
LayerCount: 2
Fore
SplineSet
60 348 m 0
 60 575 164 717 427 717 c 0
 516 717 573 703 649 668 c 1
 626 537 l 1
 595 577 544 647 428 647 c 0
 248 647 208 483 208 348 c 0
 208 205 252 48 430 48 c 0
 476 48 513 57 522 58 c 1
 522 263 l 1
 426 263 l 1
 426 328 l 1
 659 328 l 1
 659 26 l 1
 594 -1 519 -22 426 -22 c 0
 133 -22 60 156 60 348 c 0
EndSplineSet
EndChar
StartChar: L
Encoding: 76 76 44
Width: 581
Flags: HMW
LayerCount: 2
Fore
SplineSet
91 0 m 1x70
 91 695 l 1
 239 695 l 1
 239 71 l 1xb0
 534 75 l 1
 534 0 l 1x70
 91 0 l 1x70
EndSplineSet
EndChar
StartChar: M
Encoding: 77 77 45
Width: 978
Flags: HMW
LayerCount: 2
Fore
SplineSet
91 0 m 1
 91 695 l 1
 242 695 l 1
 410 327 l 2
 433 269 490 152 497 128 c 1
 498 128 l 1
 513 183 574 312 580 327 c 2
 733 695 l 1
 886 695 l 1
 886 0 l 1
 762 0 l 1
 762 561 l 1
 762 583 762 599 762 599 c 1
 758 585 751 573 746 562 c 10
 746 562 699 453 671 384 c 17
 516 22 l 1
 428 22 l 1
 281 353 l 2
 230 456 195 525 184 569 c 1
 184 0 l 1
 91 0 l 1
EndSplineSet
EndChar
StartChar: N
Encoding: 78 78 46
Width: 794
Flags: HMW
LayerCount: 2
Fore
SplineSet
91 0 m 1
 91 695 l 1
 283 695 l 1
 565 196 l 1
 608 120 l 1
 608 695 l 1
 702 695 l 1
 702 0 l 1
 510 0 l 1
 216 518 l 1
 184 574 l 1
 184 0 l 1
 91 0 l 1
EndSplineSet
EndChar
StartChar: O
Encoding: 79 79 47
Width: 794
Flags: HMW
LayerCount: 2
Fore
SplineSet
60 345 m 0
 60 629 211 717 395 717 c 0
 597 717 732 617 732 343 c 0
 732 154 665 -22 397 -22 c 0
 120 -22 60 161 60 345 c 0
207 348 m 0
 207 204 241 32 396 32 c 0
 546 32 583 199 583 346 c 0
 583 560 508 668 395 668 c 0
 292 668 207 570 207 348 c 0
EndSplineSet
EndChar
StartChar: P
Encoding: 80 80 48
Width: 703
Flags: HMW
LayerCount: 2
Fore
SplineSet
91 0 m 1
 91 695 l 1
 371 695 l 2
 454 695 537 685 590 626 c 0
 627 586 641 531 641 478 c 0
 641 318 524 310 441 301 c 0
 420 299 401 298 387 298 c 2
 239 298 l 1
 239 0 l 1
 91 0 l 1
236 347 m 1
 349 347 l 2
 445 347 501 365 501 477 c 0
 501 592 444 638 349 638 c 2
 236 638 l 1
 236 347 l 1
EndSplineSet
EndChar
StartChar: Q
Encoding: 81 81 49
Width: 794
Flags: HMW
LayerCount: 2
Fore
SplineSet
60 342 m 0
 60 561 143 686 326 712 c 0
 349 715 373 717 399 717 c 0
 508 717 583 686 634 638 c 0
 709 567 732 456 732 343 c 0
 732 186 688 84 597 26 c 1
 701 -111 l 1
 527 -111 l 1
 466 -18 l 1
 431 -21 424 -22 396 -22 c 0
 305 -22 237 -2 187 32 c 0
 89 98 60 217 60 342 c 0
205 339 m 2
 206 251 206 63 349 31 c 0
 364 27 380 26 396 26 c 0
 402 26 423 31 430 36 c 1
 324 195 l 1
 468 195 l 1
 542 97 l 1
 543 97 l 1
 587 152 587 231 587 342 c 0
 587 445 578 580 507 634 c 0
 476 658 436 669 397 669 c 0
 392 669 386 668 381 668 c 0
 338 665 293 649 263 613 c 0
 207 551 205 411 205 362 c 2
 205 339 l 2
EndSplineSet
EndChar
StartChar: R
Encoding: 82 82 50
Width: 703
Flags: HMW
LayerCount: 2
Fore
SplineSet
91 0 m 1
 91 695 l 1
 342 695 l 2
 407 695 475 694 535 666 c 0
 626 625 641 544 641 497 c 0
 641 400 577 340 483 321 c 1
 671 0 l 1
 523 0 l 1
 346 311 l 1
 236 311 l 1
 236 0 l 1
 91 0 l 1
236 354 m 1
 355 354 l 2
 401 354 438 367 463 384 c 0
 487 400 501 448 501 496 c 0
 501 545 487 593 461 609 c 0
 436 624 401 638 356 638 c 2
 236 638 l 1
 236 354 l 1
EndSplineSet
EndChar
StartChar: T
Encoding: 84 84 52
Width: 733
Flags: HMW
LayerCount: 2
Fore
SplineSet
39 614 m 1
 39 689 l 1
 693 689 l 1
 693 614 l 1
 440 618 l 1
 440 0 l 1
 292 0 l 1
 292 618 l 1
 39 614 l 1
EndSplineSet
EndChar
StartChar: U
Encoding: 85 85 53
Width: 764
Flags: HMW
LayerCount: 2
Fore
SplineSet
91 246 m 2
 91 695 l 1
 239 695 l 1
 239 200 l 2
 239 179 240 160 242 142 c 0
 246 109 266 81 289 62 c 0
 311 44 359 34 409 34 c 0
 465 34 505 47 527 68 c 0
 563 102 564 155 564 202 c 2
 564 695 l 1
 671 695 l 1
 671 242 l 2
 671 164 665 93 613 44 c 0
 570 3 516 -22 411 -22 c 0
 316 -22 225 -3 181 27 c 0
 126 64 103 120 95 181 c 0
 92 202 91 224 91 246 c 2
EndSplineSet
EndChar
StartChar: V
Encoding: 86 86 54
Width: 733
Flags: HMW
LayerCount: 2
Fore
SplineSet
15 695 m 1
 170 695 l 1
 285 380 l 2
 340 228 374 162 389 110 c 1
 408 178 448 255 470 320 c 2
 607 695 l 1
 717 695 l 1
 461 0 l 1
 271 0 l 1
 15 695 l 1
EndSplineSet
EndChar
StartChar: W
Encoding: 87 87 55
Width: 1039
Flags: HMW
LayerCount: 2
Fore
SplineSet
15 695 m 1
 147 695 l 1
 147 695 241 344 266 247 c 2
 305 95 l 1
 314 155 332 165 371 321 c 2
 471 695 l 1
 605 695 l 1
 605 695 672 452 698 358 c 2
 730 240 l 2
 745 184 764 106 765 95 c 1
 771 131 818 263 829 303 c 2
 934 695 l 1
 1023 695 l 1
 835 -0 l 1
 666 -0 l 1
 578 324 l 2
 534 487 531 505 516 569 c 1
 508 529 485 439 475 402 c 2
 366 -0 l 1
 203 -0 l 1
 15 695 l 1
EndSplineSet
EndChar
StartChar: X
Encoding: 88 88 56
Width: 733
Flags: HMW
LayerCount: 2
Fore
SplineSet
15 -0 m 1
 292 357 l 1
 292 357 l 1
 31 695 l 1
 207 695 l 1
 375 465 l 1
 554 695 l 1
 671 695 l 1
 426 379 l 1
 426 379 l 1
 717 -0 l 1
 540 -0 l 1
 348 277 l 1
 347 277 l 1
 132 0 l 1
 15 -0 l 1
EndSplineSet
EndChar
StartChar: Y
Encoding: 89 89 57
Width: 733
Flags: HMW
LayerCount: 2
Fore
SplineSet
2 695 m 1
 179 695 l 1
 327 516 l 2
 371 451 390 422 399 403 c 1
 417 447 612 683 619 695 c 1
 728 695 l 1
 463 308 l 1
 463 0 l 1
 318 0 l 1
 318 278 l 1
 2 695 l 1
EndSplineSet
EndChar
StartChar: Z
Encoding: 90 90 58
Width: 672
Flags: HMW
LayerCount: 2
Fore
SplineSet
60 0 m 1
 60 67 l 1
 60 67 l 1
 426 629 l 1
 75 625 l 1
 75 695 l 1
 610 695 l 1
 610 631 l 1
 610 631 l 1
 245 71 l 1
 616 75 l 1
 616 0 l 1
 60 0 l 1
EndSplineSet
EndChar
StartChar: bracketleft
Encoding: 91 91 59
Width: 343
Flags: HMW
LayerCount: 2
Fore
SplineSet
84 -222 m 1
 84 750 l 1
 317 750 l 1
 317 703 l 1
 218 703 l 1
 218 -175 l 1
 317 -175 l 1
 317 -222 l 1
 84 -222 l 1
EndSplineSet
EndChar
StartChar: bracketright
Encoding: 93 93 61
Width: 343
Flags: HMW
LayerCount: 2
Fore
SplineSet
24 -175 m 5
 124 -175 l 5
 124 703 l 1
 24 703 l 1
 24 750 l 1
 257 750 l 1
 257 -222 l 1
 24 -222 l 1
 24 -175 l 5
EndSplineSet
EndChar
StartChar: a
Encoding: 97 97 65
Width: 525
Flags: HMW
LayerCount: 2
Fore
SplineSet
30 129 m 0
 30 279 327 267 328 270 c 1
 328 311 l 2
 327 331 329 401 311 427 c 0
 301 442 284 452 256 452 c 0
 161 452 115 370 90 346 c 1
 82 446 l 1
 142 476 189 489 260 489 c 0
 417 489 464 420 464 315 c 2
 464 -0 l 1
 330 -0 l 1
 330 69 l 1
 295 17 231 -11 169 -11 c 0
 84 -11 30 60 30 129 c 0
162 131 m 0
 162 94 189 32 231 32 c 0
 263 32 328 80 328 154 c 2
 328 229 l 1
 264 224 162 210 162 131 c 0
EndSplineSet
EndChar
StartChar: b
Encoding: 98 98 66
Width: 561
Flags: HMW
LayerCount: 2
Fore
SplineSet
60 0 m 1
 60 695 l 1
 194 695 l 1
 194 424 l 1
 233 456 285 483 354 483 c 0x7c
 489 483 523 366 523 234 c 0
 523 58 444 -11 325 -11 c 0xbc
 267 -11 229 12 197 44 c 1
 197 0 l 1
 60 0 l 1
197 97 m 1
 201 93 207 67 216 60 c 0
 229 51 247 32 274 32 c 0
 378 32 386 138 386 232 c 0
 386 331 384 441 285 441 c 0
 248 441 203 398 197 378 c 1
 197 97 l 1
EndSplineSet
EndChar
StartChar: c
Encoding: 99 99 67
Width: 489
Flags: HMW
LayerCount: 2
Fore
SplineSet
36 237 m 0
 36 439 149 489 279 489 c 0
 356 489 390 478 451 446 c 1
 435 351 l 1
 393 383 368 441 280 441 c 0
 179 441 174 326 173 257 c 2
 173 228 l 2
 173 132 191 37 278 37 c 0
 370 37 423 82 449 103 c 1
 457 35 l 1
 399 4 348 -11 275 -11 c 0
 84 -11 36 107 36 237 c 0
EndSplineSet
EndChar
StartChar: d
Encoding: 100 100 68
Width: 561
Flags: HMW
LayerCount: 2
Fore
SplineSet
36 238 m 0
 36 316 48 398 105 445 c 0
 136 472 178 483 220 483 c 0xbc
 283 483 330 458 365 428 c 1
 365 695 l 1
 499 695 l 1xba
 499 -0 l 1
 362 -0 l 1
 362 52 l 1
 325 15 282 -11 219 -11 c 0
 188 -11 111 -5 68 72 c 0
 43 118 36 172 36 238 c 0
173 250 m 0
 173 169 174 94 197 64 c 0
 215 42 245 31 273 31 c 0
 333 31 359 102 362 103 c 1
 362 382 l 1xbc
 356 387 350 410 344 414 c 0
 330 423 316 438 299 440 c 0
 295 440 290 441 285 441 c 0
 179 441 173 328 173 250 c 0
EndSplineSet
EndChar
StartChar: e
Encoding: 101 101 69
Width: 511
Flags: HMW
LayerCount: 2
Fore
SplineSet
30 240 m 0
 30 368 78 489 269 489 c 0
 457 489 479 360 479 250 c 1
 479 250 l 1
 158 250 l 1
 158 202 160 119 189 78 c 0
 201 61 229 32 289 32 c 0
 374 32 433 73 466 99 c 1
 473 38 l 1
 440 19 378 -11 282 -11 c 0
 153 -11 30 39 30 240 c 0
162 289 m 1
 366 289 l 1
 356 382 308 446 270 446 c 0
 184 446 167 316 162 289 c 1
EndSplineSet
EndChar
StartChar: f
Encoding: 102 102 70
Width: 336
Flags: HMW
LayerCount: 2
Fore
SplineSet
30 430 m 1
 30 472 l 1
 86 472 l 1
 86 540 l 2
 86 554 87 567 89 579 c 0
 96 619 113 647 138 667 c 0
 175 696 229 706 288 706 c 0
 322 706 344 703 381 695 c 1
 381 594 l 1
 354 618 332 663 288 663 c 0
 265 663 249 658 238 650 c 0
 218 636 216 583 216 567 c 2
 216 472 l 1
 315 472 l 1
 315 430 l 1
 219 430 l 1
 219 0 l 1
 86 0 l 1
 86 430 l 1
 30 430 l 1
EndSplineSet
EndChar
StartChar: g
Encoding: 103 103 71
Width: 550
Flags: HMW
LayerCount: 2
Fore
SplineSet
170 295 m 2xea80
 170 269 171 214 187 198 c 0
 197 187 215 181 241 181 c 0
 270 181 288 187 299 198 c 0
 315 214 316 269 316 296 c 2
 316 313 l 2
 316 338 314 392 300 408 c 0
 290 420 273 427 245 427 c 0
 211 427 193 418 183 404 c 0
 171 388 170 335 170 312 c 2
 170 295 l 2xea80
97 -63 m 0xe440
 97 -87 119 -133 138 -144 c 0
 166 -160 228 -164 272 -164 c 2
 278 -164 l 2
 342 -164 378 -153 398 -138 c 0
 415 -125 420 -80 420 -67 c 0
 420 -27 372 -17 279 -17 c 2
 206 -17 l 1
 185 -17 l 2
 155 -17 97 -21 97 -63 c 0xe440
24 -65 m 0xec40
 24 -9 58 17 80 29 c 1
 56 66 54 92 54 108 c 0xe9
 54 140 64 166 81 190 c 1
 81 192 l 1
 60 215 41 250 41 303 c 0
 41 343 50 395 96 430 c 0
 126 453 173 469 243 469 c 2
 245 469 l 2xea
 336 469 358 445 375 445 c 0
 387 445 455 468 518 468 c 1
 537 424 l 1xf2
 524 424 490 418 474 418 c 2
 420 397 l 1xea40
 439 365 444 336 444 304 c 0xe880
 444 265 435 214 392 179 c 0
 362 155 315 138 242 138 c 0
 202 138 170 142 127 159 c 1xec80
 126 153 125 147 125 141 c 0xe9
 125 122 133 92 182 92 c 2
 289 92 l 2
 347 92 405 88 448 67 c 0
 482 51 508 25 518 -18 c 1
 521 -31 523 -46 523 -63 c 0
 523 -106 504 -157 431 -185 c 0
 381 -204 327 -206 274 -206 c 0
 234 -206 161 -206 104 -180 c 0
 75 -167 50 -147 36 -117 c 0
 28 -101 24 -83 24 -65 c 0xec40
EndSplineSet
EndChar
StartChar: h
Encoding: 104 104 72
Width: 561
Flags: HMW
LayerCount: 2
Fore
SplineSet
59 0 m 1
 59 695 l 1
 193 695 l 1
 193 379 l 1
 211 417 257 483 354 483 c 0
 493 483 501 404 501 314 c 0
 501 300 500 286 500 273 c 2
 500 0 l 1
 364 0 l 1
 364 327 l 2
 364 374 355 436 296 436 c 0
 228 436 200 341 196 291 c 2
 196 0 l 1
 59 0 l 1
EndSplineSet
EndChar
StartChar: m
Encoding: 109 109 77
Width: 867
Flags: HMW
LayerCount: 2
Fore
SplineSet
59 0 m 1xdc
 59 478 l 1
 190 478 l 1
 190 415 l 1
 191 373 l 1
 209 414 256 483 354 483 c 0xec
 488 483 489 410 499 379 c 1
 517 417 563 484 659 484 c 0
 703 484 733 476 755 463 c 0
 804 433 807 376 807 314 c 0
 807 300 806 286 806 273 c 2
 806 0 l 1
 670 0 l 1
 670 327 l 2
 670 375 660 441 602 441 c 0
 533 441 505 341 501 291 c 2
 501 0 l 1
 364 0 l 1
 364 327 l 2
 364 375 355 441 296 441 c 0
 228 441 200 341 196 291 c 2
 196 0 l 1
 59 0 l 1xdc
EndSplineSet
EndChar
StartChar: n
Encoding: 110 110 78
Width: 561
Flags: HMW
LayerCount: 2
Fore
SplineSet
59 0 m 1xd8
 59 478 l 1
 190 478 l 1
 190 415 l 1
 191 373 l 1
 209 415 256 483 354 483 c 0
 407 483 441 471 463 452 c 0
 498 421 501 370 501 315 c 0
 501 301 500 288 500 274 c 2
 500 0 l 1
 364 0 l 1
 364 327 l 2xe8
 364 374 355 441 296 441 c 0
 228 441 200 341 196 291 c 2
 196 0 l 1
 59 0 l 1xd8
EndSplineSet
EndChar
StartChar: o
Encoding: 111 111 79
Width: 550
Flags: HMW
LayerCount: 2
Fore
SplineSet
30 239 m 0
 30 436 150 489 274 489 c 0
 398 489 518 436 518 239 c 0
 518 28 398 -11 274 -11 c 0
 150 -11 30 28 30 239 c 0
166 241 m 0
 166 164 167 37 275 37 c 0
 383 37 382 164 382 241 c 0
 382 323 382 446 274 446 c 0
 166 446 166 323 166 241 c 0
EndSplineSet
EndChar
StartChar: p
Encoding: 112 112 80
Width: 561
Flags: HMW
LayerCount: 2
Fore
SplineSet
60 -167 m 1
 60 472 l 1
 194 472 l 1
 194 422 l 1
 209 434 227 446 246 456 c 0
 279 472 318 483 364 483 c 0
 416 483 459 463 487 416 c 0
 510 377 523 319 523 238 c 0
 523 159 508 102 481 62 c 0
 446 11 392 -11 326 -11 c 0
 290 -11 262 -2 238 12 c 0
 223 21 209 32 197 44 c 1
 197 -167 l 1
 60 -167 l 1
197 76 m 1
 201 73 213 49 234 40 c 0
 245 35 258 32 273 32 c 0
 311 32 343 50 361 80 c 0
 389 126 385 205 386 247 c 2
 385 271 l 2
 383 295 379 364 360 394 c 0
 345 417 322 435 283 435 c 0
 264 435 247 431 234 426 c 0
 211 417 198 394 197 394 c 1
 197 76 l 1
EndSplineSet
EndChar
StartChar: q
Encoding: 113 113 81
Width: 561
Flags: HMW
LayerCount: 2
Fore
SplineSet
36 235 m 0
 36 413 115 483 234 483 c 0
 313 483 349 433 365 411 c 1
 365 483 l 1
 499 483 l 1xf4
 499 -167 l 1
 362 -167 l 1
 362 53 l 1xf8
 327 13 278 -11 222 -11 c 0
 176 -11 124 4 90 42 c 0
 42 96 36 176 36 235 c 0
173 235 m 0xf4
 173 181 179 97 205 64 c 0
 220 44 243 32 275 32 c 0
 316 32 343 53 365 78 c 1
 365 364 l 2
 365 400 329 435 284 435 c 0
 255 435 210 423 188 368 c 0
 174 336 173 270 173 235 c 0xf4
EndSplineSet
EndChar
StartChar: r
Encoding: 114 114 82
Width: 372
Flags: HMW
LayerCount: 2
Fore
SplineSet
60 -0 m 1xd0
 60 478 l 1
 188 478 l 1
 188 403 l 1xe0
 189 357 l 1
 206 402 254 481 356 483 c 1
 356 411 l 1
 242 409 198 336 194 290 c 2
 194 -0 l 1
 60 -0 l 1xd0
EndSplineSet
EndChar
StartChar: t
Encoding: 116 116 84
Width: 404
Flags: HMW
LayerCount: 2
Fore
SplineSet
20 430 m 1
 20 472 l 1
 90 472 l 1
 90 607 l 1
 218 607 l 1
 218 472 l 1xd0
 355 472 l 1
 355 430 l 1
 218 430 l 1
 218 158 l 2
 218 126 221 72 231 56 c 0
 239 44 251 37 270 37 c 0xe0
 321 37 352 103 355 103 c 1
 373 33 l 1
 318 7 261 -11 187 -11 c 0
 155 -11 133 0 118 16 c 0
 88 49 87 106 87 142 c 2
 87 430 l 1xe0
 20 430 l 1
EndSplineSet
EndChar
StartChar: v
Encoding: 118 118 86
Width: 500
Flags: HMW
LayerCount: 2
Fore
SplineSet
15 472 m 1
 139 472 l 1
 227 248 l 2
 256 156 272 142 276 117 c 1
 294 165 400 436 413 472 c 1
 484 472 l 1
 310 0 l 1
 189 0 l 1
 15 472 l 1
EndSplineSet
EndChar
StartChar: w
Encoding: 119 119 87
Width: 744
Flags: HMW
LayerCount: 2
Fore
SplineSet
15 472 m 1
 137 472 l 1
 217 192 224 164 230 133 c 1
 245 198 318 457 321 472 c 1
 436 472 l 1
 497 247 l 2
 523 152 527 139 533 117 c 1
 547 174 643 452 649 472 c 1
 729 472 l 1
 580 0 l 1
 431 -0 l 1
 355 296 358 268 352 336 c 1
 346 268 285 31 273 -0 c 1
 143 -0 l 1
 15 472 l 1
EndSplineSet
EndChar
StartChar: x
Encoding: 120 120 88
Width: 500
Flags: HMW
LayerCount: 2
Fore
SplineSet
0 -0 m 1
 184 232 l 1
 184 236 l 1
 6 472 l 1
 143 472 l 1
 255 324 l 1
 257 324 l 1
 375 472 l 1
 481 472 l 1
 309 254 l 1
 309 253 l 1
 500 -0 l 1
 362 -0 l 1
 237 165 l 1
 106 0 l 1
 0 -0 l 1
EndSplineSet
EndChar
StartChar: y
Encoding: 121 121 89
Width: 500
Flags: HMW
LayerCount: 2
Fore
SplineSet
15 472 m 1
 144 472 l 1
 275 179 284 137 292 99 c 1
 294 166 387 443 393 472 c 1
 484 472 l 1
 313 -39 l 2
 296 -88 270 -120 240 -142 c 0
 203 -169 160 -178 124 -178 c 0
 93 -178 61 -174 45 -171 c 1
 36 -69 l 1
 61 -80 87 -123 126 -123 c 0
 153 -123 170.879024427 -116.84073168 184 -107 c 0
 208 -89 226 -54 236 -27 c 1
 236 -27 l 1
 236 -27 l 1
 15 472 l 1
EndSplineSet
EndChar
StartChar: z
Encoding: 122 122 90
Width: 476
Flags: HMW
LayerCount: 2
Fore
SplineSet
30 0 m 1
 30 49 l 1
 308 434 l 1
 45 432 l 1
 45 472 l 1
 439 472 l 1
 439 427 l 1
 163 44 l 1
 442 46 l 1
 442 0 l 1
 30 0 l 1
EndSplineSet
EndChar
StartChar: braceleft
Encoding: 123 123 91
Width: 550
Flags: HMW
LayerCount: 2
Fore
SplineSet
55 227 m 1
 55 300 l 1
 140 301 200 346 206 403 c 2
 207 426 l 1
 207 624 l 2
 208 642 206 669 227 694 c 0
 240 710 261 724 297 735 c 0
 343 749 391 750 438 750 c 2
 495 750 l 1
 495 708 l 1
 476 708 l 2
 359 708 343 660 343 627 c 2
 343 426 l 2
 343 408 343 390 337 373 c 0
 312 303 225 268 146 264 c 1
 146 263 l 1
 238 259 315 217 337 155 c 0
 343 138 343 120 343 101 c 2
 343 -99 l 2
 343 -139 373 -180 475 -180 c 2
 495 -180 l 1
 495 -222 l 1
 438 -222 l 2
 393 -222 333 -220 285 -203 c 0
 244 -189 212 -163 207 -120 c 2
 207 102 l 2
 206 121 207 132 199 151 c 0
 178 201 117 227 55 227 c 1
EndSplineSet
EndChar
StartChar: braceright
Encoding: 125 125 93
Width: 550
Flags: HMW
LayerCount: 2
Fore
SplineSet
55 -180 m 1
 75 -180 l 2
 162 -180 193 -141 203 -121 c 0
 206 -115 207 -107 207 -99 c 2
 207 102 l 2
 207 120 207 138 214 156 c 0
 238 225 325 260 404 263 c 1
 404 264 l 1
 324 268 238 303 214 372 c 0
 207 390 207 408 207 426 c 2
 207 627 l 2
 207 667 182 707 55 708 c 1
 55 750 l 1
 113 750 l 2
 168 750 330 750 342 649 c 2
 343 624 l 1
 343 426 l 2
 344 406 343 395 351 377 c 0
 360 354 398 301 495 300 c 1
 495 227 l 1
 398 227 360 174 351 151 c 0
 341 129 344 112 343 102 c 2
 343 -97 l 2
 343 -110 344 -129 335 -148 c 0
 325 -170 303 -192 253 -207 c 0
 207 -221 159 -222 112 -222 c 2
 55 -222 l 1
 55 -180 l 1
EndSplineSet
EndChar
StartChar: plusminus
Encoding: 177 177 145
Width: 855
Flags: MW
LayerCount: 2
Fore
SplineSet
61 17 m 0
 61 32 68 59 113 59 c 2
 385 59 l 1
 385 300 l 1
 114 300 l 2
 69 300 61 325 61 341 c 0
 61 358 69 383 114 383 c 2
 385 383 l 1
 385 655 l 2
 385 703 414 708 426 708 c 0
 442 708 468 699 468 654 c 2
 468 383 l 1
 739 383 l 2
 784 383 792 358 792 342 c 0
 792 325 784 300 739 300 c 2
 468 300 l 1
 468 59 l 1
 735 59 l 2
 750 59 762 58 773 52 c 0
 785 44 792 30 792 16 c 0
 792 3 785 -9 774 -17 c 0
 763 -25 750 -25 737 -25 c 2
 113 -25 l 2
 65 -25 61 5 61 17 c 0
EndSplineSet
EndChar
StartChar: Aring
Encoding: 197 197 158
Width: 733
Flags: HMW
LayerCount: 2
Fore
SplineSet
240 781 m 0
 240 843 265 903 364 903 c 0
 434 903 485 870 485 779 c 0
 485 716 460 657 362 657 c 0
 291 657 240 689 240 781 c 0
302 780 m 0
 302 758 307 745 316 738 c 0
 326 729 342 729 360 729 c 2
 361 729 l 2
 381 730 400 730 412 741 c 0
 419 748 424 759 424 779 c 0
 424 800 420 812 412 819 c 0
 401 829 385 830 365 830 c 2xdf
 363 830 l 2
 340 830 324 829 314 820 c 0
 306 813 302 800 302 780 c 0
EndSplineSet
Refer: 33 65 N 1 0 0 1 0 0 2
EndChar
StartChar: Yacute
Encoding: 221 221 180
Width: 733
Flags: HMW
LayerCount: 2
Fore
SplineSet
273 765 m 1
 395 863 l 1
 588 863 l 1
 391 771 l 1
 378 767 l 1
 363 765 l 9
 303 765 l 1
 273 765 l 1
EndSplineSet
Refer: 57 89 N 1 0 0 1 0 0 2
EndChar
StartChar: acircumflex
Encoding: 226 226 184
Width: 525
Flags: HMW
LayerCount: 2
Fore
SplineSet
88 541 m 1
 207 692 l 1
 341 692 l 1
 435 541 l 1
 362 541 l 1
 261 631 l 1xe8
 161 541 l 1
 88 541 l 1
EndSplineSet
Refer: 65 97 S 1 0 0 1 0 0 2
EndChar
StartChar: Ecaron
Encoding: 282 282 353
Width: 642
Flags: HMW
LayerCount: 2
Fore
SplineSet
176 903 m 1
 248 903 l 1
 356 800 l 1
 463 903 l 1
 535 903 l 1x25
 415 729 l 1
 296 729 l 1
 176 903 l 1
EndSplineSet
Refer: 37 69 N 1 0 0 1 0 0 2
EndChar
StartChar: napostrophe
Encoding: 329 329 528
Width: 561
Flags: HMW
LayerCount: 2
Fore
SplineSet
32 555 m 1
 71 629 l 1
 32 629 l 1
 32 760 l 1
 164 760 l 1
 164 642 l 1
 164 629 l 1
 97 555 l 1
 32 555 l 1
EndSplineSet
Refer: 78 110 N 1 0 0 1 0 0 2
EndChar
StartChar: Umacron
Encoding: 362 362 349
Width: 764
Flags: HMW
LayerCount: 2
Fore
SplineSet
46 809 m 0
 46 825 55 851 95 851 c 2
 662 851 l 2
 709 851 716 826 716 809 c 0
 716 794 709 767 664 767 c 2
 96 767 l 2
 51 767 46 795 46 809 c 0
EndSplineSet
Refer: 53 85 N 1 0 0 1 0 0 3
EndChar
StartChar: umacron
Encoding: 363 363 344
Width: 561
Flags: HMW
LayerCount: 2
Fore
SplineSet
81 580 m 1
 81 665 l 1
 478 665 l 1
 478 580 l 1
 81 580 l 1
EndSplineSet
Refer: 85 117 N 1 0 0 1 0 0 3
EndChar
StartChar: Ngrave
Encoding: 504 504 451
Width: 794
Flags: HMW
LayerCount: 2
Fore
SplineSet
239 866 m 1
 432 866 l 1
 554 767 l 1
 467 767 l 1
 451 768 l 1
 437 773 l 1
 239 866 l 1
EndSplineSet
Refer: 46 78 N 1 0 0 1 0 0 3
EndChar
StartChar: verticallinemod
Encoding: 712 712 632
Width: 244
Flags: MW
LayerCount: 2
Fore
SplineSet
85 451 m 1
 85 695 l 1
 158 695 l 1
 158 451 l 1
 85 451 l 1
EndSplineSet
EndChar
StartChar: lsuper
Encoding: 737 737 631
Width: 128
Flags: MW
LayerCount: 2
Fore
SplineSet
30 393 m 1
 30 741 l 1
 97 741 l 1
 97 393 l 1
 30 393 l 1
EndSplineSet
EndChar
StartChar: tonelow
Encoding: 744 744 682
Width: 367
Flags: MW
LayerCount: 2
Fore
SplineSet
-68 196 m 4
 -68 221 -53 264 11 264 c 6
 357 264 l 6
 425 264 435 215 435 196 c 4
 435 172 420 128 358 128 c 6
 11 128 l 6
 -58 128 -68 177 -68 196 c 4
298 -22 m 5
 298 717 l 5
 435 717 l 5
 435 -22 l 5
 298 -22 l 5
EndSplineSet
EndChar
StartChar: epsilontonos
Encoding: 941 941 413
Width: 474
Flags: MW
LayerCount: 2
Fore
SplineSet
170 517 m 5
 227 695 l 5
 364 695 l 5
 243 517 l 5
 170 517 l 5
EndSplineSet
Refer: 251 949 S 1 0 0 1 0 0 2
EndChar
StartChar: omicron
Encoding: 959 959 261
Width: 581
Flags: MW
LayerCount: 2
Fore
SplineSet
45 237 m 0
 45 366 148 483 289 483 c 0
 429 483 533 368 533 236 c 0
 533 106 430 -11 289 -11 c 0
 158 -11 45 95 45 237 c 0
182 236 m 0
 182 180 224 126 289 126 c 0
 352 126 397 179 397 236 c 0
 397 292 354 347 289 347 c 0
 226 347 182 293 182 236 c 0
EndSplineSet
EndChar
StartChar: Dje
Encoding: 1026 1026 423
Width: 886
Flags: MW
LayerCount: 2
Fore
SplineSet
39 590 m 1
 39 695 l 1
 693 695 l 1
 693 591 l 1
 440 594 l 1
 440 378 l 1
 454 402 470 422 487 437 c 0
 545 489 616 495 655 495 c 0
 833 495 846 413 846 311 c 2
 846 267 l 2
 846 200 854 89 788 26 c 4
 758 -3 712 -22 642 -22 c 0
 588 -22 560 -15 517 0 c 1
 546 108 l 1
 565 79 585 50 643 50 c 0
 676 50 694 66 702 96 c 4
 713 136 709 200 709 286 c 2
 709 316 l 2
 709 388 686 422 585 422 c 0
 530 422 496 401 475 375 c 0
 441 333 440 308 440 262 c 2
 440 0 l 1
 292 0 l 1
 292 593 l 1
 39 590 l 1
EndSplineSet
EndChar
StartChar: Ge
Encoding: 1043 1043 274
Width: 581
Flags: MW
LayerCount: 2
Fore
SplineSet
91 0 m 1
 91 695 l 1xb0
 534 695 l 1
 534 590 l 1xd0
 239 593 l 1
 239 0 l 1xb0
 91 0 l 1
EndSplineSet
EndChar
StartChar: Ie
Encoding: 1045 1045 276
Width: 642
Flags: MW
LayerCount: 2
Fore
SplineSet
91 0 m 1
 91 695 l 1x6c
 580 695 l 1
 580 590 l 1x34
 239 593 l 1
 239 409 l 1
 549 409 l 1
 549 314 l 1
 239 314 l 1
 239 107 l 1xac
 595 111 l 1
 595 0 l 1x64
 91 0 l 1
EndSplineSet
EndChar
StartChar: en
Encoding: 1085 1085 318
Width: 561
Flags: MW
LayerCount: 2
Fore
SplineSet
67 0 m 1
 67 472 l 1
 187 472 l 1
 187 286 l 1
 372 286 l 1
 372 472 l 1
 493 472 l 1
 493 0 l 1
 372 0 l 1
 372 233 l 1
 187 233 l 1
 187 0 l 1
 67 0 l 1
EndSplineSet
EndChar
StartChar: che
Encoding: 1095 1095 328
Width: 592
Flags: MW
LayerCount: 2
Fore
SplineSet
67 308 m 2
 67 472 l 1
 187 472 l 1
 187 310 l 2
 187 271 199 254 247 254 c 2
 403 254 l 1
 403 472 l 1
 524 472 l 1
 524 0 l 1
 403 0 l 1
 403 200 l 1
 241 200 l 2
 164 200 67 221 67 308 c 2
EndSplineSet
EndChar
StartChar: Etilde
Encoding: 7868 7868 355
Width: 642
Flags: HMW
LayerCount: 2
Fore
SplineSet
160 767 m 1xd7
 162 846 209 900 271 900 c 0xcf
 340 900 366 846 410 840 c 0xd7
 423 839 426 842 430 843 c 1
 445 854 453 864 454 900 c 1xe7
 527 900 l 1xcf
 525 821 478 767 416 767 c 0xd7
 347 767 321 821 277 826 c 0xcf
 263 828 265 825 257 823 c 1
 242 812 234 803 233 767 c 1xe7
 160 767 l 1xd7
EndSplineSet
Refer: 37 69 N 1 0 0 1 0 0 3
EndChar
StartChar: emdash
Encoding: 8212 8212 665
Width: 1100
Flags: MW
LayerCount: 2
Fore
SplineSet
0 256 m 1
 0 328 l 1
 1100 328 l 1
 1100 256 l 1
 0 256 l 1
EndSplineSet
EndChar
StartChar: daggerdbl
Encoding: 8225 8225 115
Width: 489
Flags: MW
LayerCount: 2
Fore
SplineSet
60 42 m 0
 60 80 87 111 127 111 c 0
 167 111 182 76 229 57 c 1
 219 111 175 144 175 195 c 0
 175 239 208 263 243 263 c 0
 281 263 312 236 312 196 c 0
 312 145 268 110 258 57 c 1
 299 74 322 111 360 111 c 0
 398 111 427 80 427 42 c 0
 427 5 399 -25 360 -25 c 0
 319 -25 305 9 258 28 c 1
 268 -26 311 -58 311 -110 c 0
 311 -153 279 -178 244 -178 c 0
 206 -178 175 -151 175 -110 c 0
 175 -59 218 -26 229 28 c 1
 181 9 170 -25 127 -25 c 0
 85 -25 60 6 60 42 c 0
60 485 m 0
 60 523 88 553 127 553 c 0
 168 553 184 516 229 500 c 1
 212 565 175 587 175 638 c 0
 175 679 206 706 243 706 c 0
 281 706 312 679 312 638 c 0
 312 585 269 555 258 500 c 1
 301 516 318 553 360 553 c 0
 400 553 427 522 427 484 c 0
 427 447 399 417 360 417 c 0
 319 417 303 454 258 470 c 1
 275 405 311 383 311 332 c 0
 311 291 281 264 244 264 c 0
 206 264 175 291 175 332 c 0
 175 385 218 414 229 470 c 1
 186 454 168 417 126 417 c 0
 87 417 60 448 60 485 c 0
EndSplineSet
EndChar
StartChar: guilsinglleft
Encoding: 8249 8249 109
Width: 428
Flags: MW
LayerCount: 2
Fore
SplineSet
121 250 m 1
 232 427 l 1
 304 427 l 1
 269 292 259 262 259 247 c 0
 259 239 259 246 304 73 c 1
 232 73 l 1
 121 250 l 1
EndSplineSet
EndChar
StartChar: zero.superior
Encoding: 8304 8304 636
Width: 489
Flags: MW
LayerCount: 2
Fore
SplineSet
36 567 m 1
 36 578 36 582 36 593 c 1
 39 680 56 764 170 786 c 0
 192 790 216 792 244 792 c 0
 295 792 353 784 392 754 c 0
 457 704 452 608 451 568 c 1
 451 572 451 566 451 569 c 1
 451 505 470 371 315 342 c 0
 293 339 270 337 243 337 c 0
 -4 337 36 505 36 567 c 1
178 573 m 1
 178 458 169 424 218 406 c 0
 224 405 233 401 244 401 c 0
 243 401 265 400 285 415 c 0
 323 442 306 488 309 577 c 1
 309 586 311 579 311 590 c 1
 311 624 312 682 299 701 c 0
 293 712 273 727 244 727 c 0
 146 727 178 632 178 592 c 1
 178 580 178 584 178 573 c 1
EndSplineSet
EndChar
StartChar: nine.superior
Encoding: 8313 8313 642
Width: 489
Flags: MW
LayerCount: 2
Fore
SplineSet
40 618 m 0
 40 659 32 696 64 733 c 0
 92 765 136 792 245 792 c 0
 313 792 354 776 379 760 c 0
 459 705 448 604 448 573 c 0
 448 513 451 424 369 372 c 0
 324 345 259 337 201 337 c 0
 148 337 112 346 70 366 c 1
 118 430 l 1
 147 416 167 411 201 411 c 0
 242 411 276 422 288 436 c 0
 299 450 308 483 305 536 c 1
 305 533 304 538 304 535 c 1
 302 516 278 474 203 474 c 0
 118 474 84 499 69 515 c 0
 40 544 40 583 40 618 c 0
183 625 m 1
 186 546 190 543 198 538 c 0
 209 532 226 531 236 531 c 0
 250 531 275 534 291 559 c 0
 298 573 304 594 304 630 c 0
 304 675 311 719 242 719 c 0
 225 719 212 718 204 714 c 0
 166 698 182 656 181 631 c 1
 184 637 183 618 183 625 c 1
EndSplineSet
EndChar
StartChar: celsius
Encoding: 8451 8451 715
Width: 947
Flags: HMW
LayerCount: 2
Fore
SplineSet
-0 572 m 0
 0 653 50 695 122 695 c 0
 197 695 244 651 244 573 c 0
 244 491 194 450 122 450 c 0
 42 450 0 500 -0 572 c 0
83 572 m 0
 83 539 103 534 124 534 c 3
 156 534 161 549 161 573 c 0xee
 161 603 146 611 124 611 c 0
 101 611 83 607 83 572 c 0
EndSplineSet
Refer: 35 67 N 1 0 0 1 246 0 2
EndChar
StartChar: twothirds
Encoding: 8532 8532 658
Width: 489
Flags: MW
LayerCount: 2
Fore
SplineSet
45 -141 m 1
 60 -64 l 1
 60 -64 121 -90 171 -90 c 2
 219 -90 l 0
 245 -90 265 -89 278 -82 c 0
 288 -77 294 -68 294 -52 c 0
 294 -37 288 -27 278 -21 c 4
 268 -15 253 -14 235 -14 c 2
 182 -14 l 1
 182 46 l 1
 218 49 239 49 258 66 c 0
 267 73 271 83 271 92 c 0
 271 114 254 118 232 118 c 0
 183 118 150 110 110 97 c 1
 60 162 l 1
 116 182 169 192 232 192 c 4
 360 192 411 152 411 91 c 0
 411 47 373 28 352 17 c 1
 389 10 441 -9 441 -53 c 0
 441 -71 434 -119 376 -145 c 0
 326 -168 268 -168 212 -168 c 6
 162 -168 l 2
 112 -168 45 -141 45 -141 c 1
45 727 m 1
 101 755 151 772 226 772 c 0
 347 772 432 718 432 640 c 0
 432 573 335 573 263 550 c 0
 239 542 239 541 146 505 c 1
 280 505 l 1
 302 506 l 1
 432 506 l 1
 432 416 l 1
 54 416 l 1
 54 505 l 1
 153 549 l 2
 224 575 291 589 291 637 c 0
 291 666 259 687 211 687 c 0
 152 687 122 660 111 651 c 1
 45 727 l 1
-10 292 m 0
 -10 303 -6 312 0 319 c 0
 7 327 18 332 30 333 c 2
 56 334 l 1
 440 334 l 2
 456 334 471 333 482 326 c 0
 488 322 492 317 496 309 c 0
 498 303 499 298 499 292 c 0
 499 283 496 270 486 261 c 0
 479 255 467 250 450 250 c 2
 39 250 l 2
 22 250 11 255 4 261 c 0
 -8 271 -10 285 -10 292 c 0
EndSplineSet
EndChar
StartChar: product
Encoding: 8719 8719 661
Width: 794
Flags: MW
LayerCount: 2
Fore
SplineSet
91 -200 m 1
 91 692 l 5
 702 692 l 1
 702 -200 l 1
 554 -200 l 1
 554 597 l 1
 239 597 l 1
 239 -200 l 1
 91 -200 l 1
EndSplineSet
EndChar
StartChar: summation
Encoding: 8721 8721 734
Width: 794
Flags: W
LayerCount: 2
Fore
SplineSet
60 -200 m 1
 410 240 l 1
 60 594 l 1
 60 695 l 1
 732 695 l 1
 732 590 l 1
 269 593 l 1
 600 258 l 1
 323 -90 l 1
 732 -87 l 1
 732 -200 l 1
 60 -200 l 1
EndSplineSet
EndChar
StartChar: minusplus
Encoding: 8723 8723 733
Width: 855
Flags: W
LayerCount: 2
Fore
SplineSet
61 566 m 0
 61 578 65 608 113 608 c 2
 737 608 l 2
 750 608 763 608 774 600 c 0
 785 592 792 580 792 567 c 0
 792 553 785 539 773 531 c 0
 762 525 750 524 735 524 c 2
 468 524 l 1
 468 283 l 1
 739 283 l 2
 784 283 792 258 792 241 c 0
 792 225 784 200 739 200 c 2
 468 200 l 1
 468 -71 l 2
 468 -116 442 -125 426 -125 c 0
 414 -125 385 -120 385 -72 c 2
 385 200 l 1
 114 200 l 2
 69 200 61 225 61 242 c 0
 61 258 69 283 114 283 c 2
 385 283 l 1
 385 524 l 1
 113 524 l 2
 68 524 61 551 61 566 c 0
EndSplineSet
EndChar
StartChar: infinity
Encoding: 8734 8734 725
Width: 867
Flags: W
LayerCount: 2
Fore
SplineSet
50 348 m 0
 50 519 161 576 259 576 c 0xec
 353 576 393 506 420 452 c 1
 444 539 508 576 594 576 c 0
 706 576 817 531 817 348 c 0
 817 165 705 118 594 118 c 0xf2
 508 118 444 155 420 242 c 1
 396 183 348 120 258 120 c 0
 161 120 50 177 50 348 c 0
139 348 m 0
 139 270 196 248 262 248 c 0
 334 248 384 275 384 346 c 0
 384 421 327 448 260 448 c 0
 187 448 139 421 139 348 c 0
456 348 m 0
 456 261 530 258 594 258 c 0
 670 258 722 265 722 346 c 0
 722 434 652 438 586 438 c 0
 507 438 456 427 456 348 c 0
EndSplineSet
EndChar
StartChar: logicaland
Encoding: 8743 8743 743
Width: 855
Flags: W
LayerCount: 2
Fore
SplineSet
428 584 m 3
 452 584 461 561 468 548 c 2
 770 -24 l 2
 774 -32 778 -41 778 -50 c 0
 778 -69 761 -84 742 -84 c 0
 716 -84 706 -57 702 -48 c 2
 428 472 l 1
 410 436 l 1
 154 -48 l 2
 149 -57 137 -84 112 -84 c 0
 93 -84 76 -69 76 -50 c 0
 76 -41 80 -32 84 -24 c 2
 386 548 l 2
 393 561 403 584 428 584 c 3
EndSplineSet
EndChar
StartChar: intersection
Encoding: 8745 8745 757
Width: 855
Flags: W
LayerCount: 2
Fore
SplineSet
427 585 m 0
 618 585 774 429 774 238 c 2
 774 -39 l 2
 774 -80 746 -84 737 -84 c 0
 723 -84 701 -76 701 -36 c 2
 701 238 l 2
 701 389 578 511 427 511 c 0
 276 511 154 389 154 238 c 2
 154 -39 l 2
 154 -80 126 -84 117 -84 c 0
 103 -84 81 -76 81 -36 c 2
 81 238 l 2
 81 429 236 585 427 585 c 0
EndSplineSet
EndChar
StartChar: therefore
Encoding: 8756 8756 721
Width: 647
Flags: W
LayerCount: 2
Fore
SplineSet
427 0 m 1
 427 131 l 1
 558 131 l 1
 558 0 l 1
 427 0 l 1
256 341 m 1
 256 472 l 1
 387 472 l 1
 387 341 l 1
 256 341 l 1
86 0 m 1
 86 131 l 1
 217 131 l 1
 217 0 l 1
 86 0 l 1
EndSplineSet
EndChar
StartChar: congruent
Encoding: 8773 8773 739
Width: 855
Flags: W
LayerCount: 2
Fore
SplineSet
61 35 m 0
 61 53 75 68 92 71 c 0
 100 72 109 72 118 72 c 2
 747 72 l 2
 788 72 792 44 792 35 c 0
 792 21 784 -1 744 -1 c 2
 109 -1 l 2
 68 -1 61 21 61 35 c 0
61 235 m 0
 61 253 75 268 92 271 c 0
 100 272 109 272 118 272 c 2
 747 272 l 2
 788 272 792 244 792 235 c 0
 792 221 784 199 744 199 c 2
 109 199 l 2
 68 199 61 221 61 235 c 0
71 428 m 1x58
 74 508 209 557 284 557 c 0x38
 384 557 497 501 559 501 c 0x58
 574 501 691 507 697 557 c 1x98
 769 557 l 1x38
 766 476 631 428 556 428 c 0x58
 458 428 343 484 282 484 c 0x38
 266 484 149 478 144 428 c 1x98
 71 428 l 1x58
EndSplineSet
EndChar
StartChar: notequal
Encoding: 8800 8800 728
Width: 856
Flags: W
LayerCount: 2
Fore
SplineSet
238 -72 m 0
 238 -61 243 -51 246 -42 c 2
 305 109 l 1
 105 109 l 2
 94 110 81 112 72 119 c 0
 65 124 61 132 61 145 c 0
 61 159 66 167 73 172 c 0
 86 182 104 180 104 181 c 2
 114 181 l 1
 334 181 l 1
 399 346 l 1
 104 346 l 2
 93 347 80 349 71 356 c 0
 65 361 61 369 61 382 c 0
 61 395 66 403 72 408 c 0
 85 419 105 418 106 419 c 2
 427 419 l 1
 482 558 l 2
 487 571 496 604 525 604 c 0
 544 604 561 590 561 568 c 0
 561 558 557 549 554 541 c 2
 506 419 l 1
 748 419 l 2
 760 417 773 415 782 408 c 0
 789 403 793 395 793 382 c 0
 793 368 788 360 781 355 c 0
 768 345 750 347 749 346 c 2
 477 346 l 1
 412 181 l 1
 749 181 l 2
 759 180 770 179 779 174 c 0
 787 169 793 160 793 145 c 0
 793 130 786 121 778 116 c 0
 765 108 748 110 748 109 c 2
 384 109 l 1
 318 -59 l 2
 309.902431363 -76.814651002 303.464717103 -108 274 -108 c 0
 257 -108 238 -94 238 -72 c 0
EndSplineSet
EndChar
StartChar: notequivalence
Encoding: 8802 8802 735
Width: 856
Flags: W
LayerCount: 2
Fore
SplineSet
61 65 m 0
 61 79 66 87 73 92 c 0
 86 102 104 100 104 101 c 2
 114 101 l 1
 302 101 l 1
 353 229 l 1
 105 229 l 2
 94 229 81 232 72 239 c 0
 65 244 61 252 61 265 c 0
 61 279 66 287 73 292 c 0
 86 302 104 300 104 301 c 2
 114 301 l 1
 381 301 l 1
 430 426 l 1
 104 426 l 2
 93 426 80 429 71 436 c 0
 65 441 61 449 61 462 c 0
 61 475 66 483 72 488 c 0
 85 499 105 498 106 499 c 2
 459 499 l 1
 482 558 l 2
 487 571 496 604 525 604 c 0
 544 604 561 590 561 568 c 0
 561 558 557 549 554 541 c 2
 537 499 l 1
 748 499 l 2
 760 497 773 495 782 488 c 0
 789 483 793 475 793 462 c 0
 793 448 788 440 781 435 c 0
 768 425 750 427 749 426 c 2
 509 426 l 1
 460 301 l 1
 749 301 l 2
 759 301 770 299 779 294 c 0
 787 289 793 280 793 265 c 0
 793 250 786 241 778 236 c 0
 765 228 748 230 748 229 c 2
 431 229 l 1
 381 101 l 1
 749 101 l 2
 759 101 770 99 779 94 c 0
 787 89 793 80 793 65 c 0
 793 50 786 41 778 36 c 0
 765 28 748 30 748 29 c 2
 353 29 l 1
 318 -59 l 2
 311 -77 303 -108 274 -108 c 0
 257 -108 238 -94 238 -72 c 0
 238 -61 243 -51 246 -42 c 2
 274 29 l 1
 105 29 l 2
 94 29 81 32 72 39 c 0
 65 44 61 52 61 65 c 0
EndSplineSet
EndChar
StartChar: lessequal
Encoding: 8804 8804 662
Width: 856
Flags: MW
LayerCount: 2
Fore
SplineSet
94 300 m 3
 94 324 117 334 130 341 c 2
 702 593 l 2
 710 597 719 601 728 601 c 0
 747 601 762 584 762 565 c 0
 762 539 735 528 726 524 c 2
 206 300 l 1
 242 284 l 1
 726 77 l 2
 736 73 762 60 762 35 c 0
 762 16 747 -1 728 -1 c 0
 719 -1 711 3 702 7 c 2
 130 258 l 2
 116 264 94 275 94 300 c 3
62 -65 m 0
 62 -47 77 -32 94 -29 c 0
 102 -28 111 -28 120 -28 c 2
 748 -28 l 2
 789 -28 794 -56 794 -65 c 0
 794 -79 786 -101 746 -101 c 2
 110 -101 l 2
 69 -101 62 -79 62 -65 c 0
EndSplineSet
EndChar
StartChar: greaterequal
Encoding: 8805 8805 663
Width: 856
Flags: MW
LayerCount: 2
Fore
SplineSet
94 35 m 0
 94 61 121 72 130 76 c 2
 650 300 l 1
 614 316 l 1
 130 523 l 2
 116 529 94 540 94 565 c 0
 94 584 109 601 128 601 c 0
 138 601 146 597 154 593 c 2
 726 342 l 2
 739 335 762 325 762 300 c 4
 762 276 742 264 728 259 c 2
 154 7 l 2
 145 3 138 -1 128 -1 c 0
 109 -1 94 16 94 35 c 0
62 -65 m 0
 62 -47 77 -32 94 -29 c 0
 102 -28 111 -28 120 -28 c 2
 748 -28 l 2
 789 -28 794 -56 794 -65 c 0
 794 -79 786 -101 746 -101 c 2
 110 -101 l 2
 69 -101 62 -79 62 -65 c 0
EndSplineSet
EndChar
StartChar: greateroverequal
Encoding: 8807 8807 727
Width: 856
Flags: W
LayerCount: 2
Fore
SplineSet
62 60 m 0
 62 78 77 93 94 96 c 0
 102 97 111 97 120 97 c 2
 748 97 l 2
 789 97 794 69 794 60 c 0
 794 46 786 24 746 24 c 2
 110 24 l 2
 69 24 62 46 62 60 c 0
62 -115 m 0
 62 -97 77 -82 94 -79 c 0
 102 -78 111 -78 120 -78 c 2
 748 -78 l 2
 789 -78 794 -106 794 -115 c 0
 794 -129 786 -151 746 -151 c 2
 110 -151 l 2
 69 -151 62 -129 62 -115 c 0
94 160 m 0
 94 185 120 198 130 202 c 6
 610 386 l 1
 644 400 l 1
 130 599 l 2
 120 603 94 614 94 640 c 0
 94 659 109 676 128 676 c 0
 137 676 146 671 154 668 c 2
 726 441 l 2
 740 436 762 424 762 400 c 3
 762 375 740 364 726 358 c 2
 154 132 l 2
 145 129 135 124 126 124 c 0
 107 124 94 141 94 160 c 0
EndSplineSet
EndChar
StartChar: muchless
Encoding: 8810 8810 731
Width: 1306
Flags: W
LayerCount: 2
Fore
SplineSet
542 250 m 3
 542 274 565 284 578 291 c 2
 1150 593 l 2
 1157.89257812 596.946289062 1166.59667969 601 1176 601 c 0
 1195 601 1211 584 1211 565 c 0
 1211 539 1184 528 1175 524 c 2
 655 250 l 1
 690 232 l 1
 1175 -23 l 2
 1184 -28 1211 -40 1211 -65 c 0
 1211 -84 1195 -101 1176 -101 c 0
 1167 -101 1158 -97 1150 -93 c 2
 579 208 l 2
 566 215 542 225 542 250 c 3
92 250 m 3
 92 274 115 284 128 291 c 2
 700 593 l 2
 707.89294299 596.946471495 716.597146022 601 726 601 c 0
 745 601 761 584 761 565 c 0
 761 539 734 528 725 524 c 2
 205 250 l 1
 240 232 l 1
 725 -23 l 2
 734 -28 761 -40 761 -65 c 0
 761 -84 745 -101 726 -101 c 0
 717 -101 708 -97 700 -93 c 2
 129 208 l 2
 116 215 92 225 92 250 c 3
EndSplineSet
EndChar
StartChar: lessorequivalent
Encoding: 8818 8818 741
Width: 856
Flags: W
LayerCount: 2
Fore
SplineSet
71 -72 m 1x58
 74 8 209 57 284 57 c 0x38
 384 57 497 1 559 1 c 0x58
 574 1 691 7 697 57 c 1x98
 769 57 l 1x38
 766 -24 631 -72 556 -72 c 0x58
 458 -72 343 -16 282 -16 c 0x38
 266 -16 149 -22 144 -72 c 1x98
 71 -72 l 1x58
94 400 m 3
 94 424 116 436 130 441 c 2
 702 668 l 2
 710 671 719 676 728 676 c 0
 747 676 762 659 762 640 c 0
 762 614 736 603 726 599 c 2
 212 400 l 1
 246 386 l 1
 726 202 l 2
 736 198 762 185 762 160 c 0
 762 141 749 124 730 124 c 0
 721 124 711 129 702 132 c 2
 130 358 l 2
 116 364 94 375 94 400 c 3
EndSplineSet
EndChar
StartChar: greaterorless
Encoding: 8823 8823 737
Width: 856
Flags: W
LayerCount: 2
Fore
SplineSet
94 75 m 3
 94 99 116 111 130 116 c 2
 702 343 l 2
 710 346 719 351 728 351 c 0
 747 351 762 334 762 315 c 0
 762 289 736 278 726 274 c 2
 212 75 l 1
 246 61 l 1
 726 -123 l 2
 736 -127 762 -140 762 -165 c 0
 762 -184 749 -201 730 -201 c 0
 721 -201 711 -196 702 -193 c 2
 130 33 l 2
 116 39 94 50 94 75 c 3
94 285 m 0
 94 310 120 323 130 327 c 2
 610 511 l 1
 644 525 l 1
 130 724 l 2
 120 728 94 739 94 765 c 0
 94 784 109 801 128 801 c 0
 137 801 146 796 154 793 c 2
 726 566 l 2
 740 561 762 549 762 525 c 3
 762 500 740 489 726 483 c 2
 154 257 l 2
 145 254 135 249 126 249 c 0
 107 249 94 266 94 285 c 0
EndSplineSet
EndChar
StartChar: notsubset
Encoding: 8836 8836 751
Width: 855
Flags: W
LayerCount: 2
Fore
SplineSet
166 250 m 0
 166 144 226 51 315 6 c 1
 518 524 l 1
 439 524 l 2
 288 524 166 401 166 250 c 0
92 250 m 0
 92 441 248 597 439 597 c 2
 547 597 l 1
 571 658 l 2
 576 671 585 704 614 704 c 0
 633 704 650 690 650 668 c 0
 650 658 646 649 643 641 c 2
 626 597 l 1
 716 597 l 2
 757 597 761 569 761 560 c 0
 761 546 753 524 713 524 c 2
 597 524 l 1
 385 -18 l 1
 403 -22 420 -23 439 -23 c 2
 716 -23 l 2
 757 -23 761 -51 761 -60 c 0
 761 -74 753 -96 713 -96 c 2
 439 -96 l 2
 411 -96 384 -92 358 -86 c 1
 329 -159 l 2
 322 -177 314 -208 285 -208 c 0
 268 -208 249 -194 249 -172 c 0
 249 -161 254 -151 257 -142 c 2
 289 -62 l 1
 173 -6 92 113 92 250 c 0
EndSplineSet
EndChar
StartChar: supersetorequal
Encoding: 8839 8839 754
Width: 855
Flags: W
LayerCount: 2
Fore
SplineSet
94 110 m 0
 94 119 98 147 139 147 c 2
 416 147 l 2
 567 147 689 184 689 335 c 0
 689 486 567 524 416 524 c 2
 142 524 l 2
 102 524 94 546 94 560 c 0
 94 569 98 597 139 597 c 2
 416 597 l 2
 607 597 763 526 763 335 c 0
 763 144 607 74 416 74 c 2
 142 74 l 2
 102 74 94 96 94 110 c 0
62 -65 m 0
 62 -47 77 -32 94 -29 c 0
 102 -28 111 -28 120 -28 c 2
 748 -28 l 2
 789 -28 794 -56 794 -65 c 0
 794 -79 786 -101 746 -101 c 2
 110 -101 l 2
 69 -101 62 -79 62 -65 c 0
EndSplineSet
EndChar
StartChar: circleplus
Encoding: 8853 8853 767
Width: 855
Flags: W
LayerCount: 2
Fore
SplineSet
81 250 m 0
 81 441 237 597 428 597 c 0
 619 597 775 441 775 250 c 0
 775 59 619 -96 428 -96 c 0
 237 -96 81 59 81 250 c 0
157 214 m 1
 173 93 269 -3 390 -20 c 1
 390 214 l 1
 157 214 l 1
157 286 m 1
 390 286 l 1
 390 521 l 1
 269 504 173 408 157 286 c 1
463 -21 m 1
 586 -5 683 92 699 214 c 1
 463 214 l 1
 463 -21 l 1
463 286 m 1
 699 286 l 1
 683 409 586 506 463 522 c 1
 463 286 l 1
EndSplineSet
EndChar
StartChar: squareplus
Encoding: 8862 8862 779
Width: 855
Flags: W
LayerCount: 2
Fore
SplineSet
61 -80 m 2
 61 580 l 2
 61 601.758299338 75.0369643772 615.999999848 97 616 c 2
 755 616 l 2
 775.995434689 616 792.000000086 600.714817826 792 580 c 2
 792 -80 l 2
 792 -101.753487607 776.812567862 -115.999999697 756 -116 c 2
 98 -116 l 2
 77.1556277248 -116 61 -100.696214172 61 -80 c 2
134 214 m 1
 134 -44 l 1
 390 -44 l 1
 390 214 l 1
 134 214 l 1
463 -44 m 1
 719 -44 l 1
 719 214 l 1
 463 214 l 1
 463 -44 l 1
719 286 m 1
 719 544 l 1
 463 544 l 1
 463 286 l 1
 719 286 l 1
390 544 m 1
 134 544 l 1
 134 286 l 1
 390 286 l 1
 390 544 l 1
EndSplineSet
EndChar
StartChar: squaremultiply
Encoding: 8864 8864 780
Width: 855
Flags: W
LayerCount: 2
Fore
SplineSet
61 -80 m 2
 61 580 l 2
 61 602 75 616 97 616 c 2
 755 616 l 2
 776 616 792 601 792 580 c 2
 792 -80 l 2
 792 -102 777 -116 756 -116 c 2
 98 -116 l 2
 77 -116 61 -101 61 -80 c 2
183 -44 m 1
 669 -44 l 1
 426 199 l 1
 183 -44 l 1
719 9 m 1
 719 492 l 1
 478 250 l 1
 719 9 l 1
670 544 m 1
 184 544 l 1
 427 301 l 1
 670 544 l 1
134 491 m 1
 134 8 l 1
 375 250 l 1
 134 491 l 1
EndSplineSet
EndChar
StartChar: projective
Encoding: 8965 8965 765
Width: 855
Flags: W
LayerCount: 2
Fore
SplineSet
61 512 m 0
 61 525 66 533 72 538 c 0
 85 549 105 548 106 549 c 1
 748 549 l 1
 760 547 773 545 782 538 c 0
 789 533 793 525 793 512 c 0
 793 498 788 490 781 485 c 0
 768 475 750 477 749 476 c 1
 104 476 l 2
 93 476 80 479 71 486 c 0
 65 491 61 499 61 512 c 0
76 -50 m 0
 76 -41 82 -35 88 -28 c 2
 386 348 l 2
 395 359 403 371 428 371 c 3
 452 371 459 359 468 348 c 2
 766 -28 l 2
 772 -35 778 -41 778 -50 c 0
 778 -69 761 -84 742 -84 c 0
 716 -84 704 -59 698 -52 c 2
 428 282 l 1
 158 -52 l 2
 151 -60 137 -84 112 -84 c 0
 93 -84 76 -69 76 -50 c 0
EndSplineSet
EndChar
StartChar: lozenge
Encoding: 9674 9674 664
Width: 648
Flags: MW
LayerCount: 2
Fore
SplineSet
121 264 m 0
 121 272 124 279 127 287 c 2
 279 705 l 1
 285 726 296 750 324 750 c 0
 357 750 365 719 370 705 c 2
 522 287 l 2
 525 279 527 272 527 263 c 0
 527 255 525 248 522 240 c 2
 370 -178 l 2
 364 -196 352 -222 325 -222 c 3
 294 -222 284 -194 278 -178 c 2
 127 240 l 2
 124 248 121 255 121 264 c 0
325 -60 m 1
 442 264 l 1
 324 587 l 1
 207 263 l 1
 325 -60 l 1
EndSplineSet
EndChar
